<svg xmlns="http://www.w3.org/2000/svg" viewBox="0 0 830 248" enable-background="new 0 0 830 248"><switch><g><path d="m605.49 224.79c-1.35-1.293-1.419-3.426-.129-4.783l1.23-1.358 15.537-17.322h-68.1c-20.12 0-39.4-8.01-53.66-22.17l-33.02-32.896-29.345 1.938-.903 28.631c0 .065 0 .065 0 0l32.956 32.834c11.1 11.12 24.06 19.713 38.57 25.725 14.445 6.01 29.732 8.984 45.41 8.984h69.91l-18.443-19.583" fill="#f4831e"/><g><path d="m343.47 55.27c-.556.341-1.092.663-1.619.956l-.936.546 1.727 1.726.556-.936c.293-.517.614-1.053.956-1.619.341-.566.673-1.112.995-1.639l-.049-.059c-.538.342-1.084.674-1.63 1.025" fill="#d62d20"/><path d="m331.77 43.36c.419-.419.585-.839.517-1.268-.078-.439-.361-.897-.849-1.375l-1.024-1.014-2.448 2.448 1.024 1.014c.498.497.985.771 1.453.79.459.03.907-.165 1.327-.595" fill="#d62d20"/><path d="m359.5 38.711c-11.09-11.122-24.12-19.72-38.571-25.725-14.444-6.01-29.731-8.986-45.4-8.986h-68.04c-.069.258-.258.388-.387.577l-20.06 21.331 19.03 21.13h69.45c20.13 0 39.41 8.02 53.669 22.18l41.726 41.62.774-25.27c0-2.524 1.995-4.652 4.514-4.781l1.806-.069 22.509-1.163-41.02-40.845" fill="#d62d20"/></g><g><path d="m622.45 4.577c-.129-.189-.327-.319-.387-.577h-68.04c-15.674 0-30.961 2.972-45.41 8.986-14.513 6-27.471 14.603-38.57 25.725l-55.14 54.939-13.55 13.44 25.674.775h.06c1.814 0 3.362 1.422 3.422 3.3l.069 1.809 1.29 24.562 13.413-13.379h-.069l55.15-54.939c14.255-14.155 33.541-22.18 53.66-22.18h69.46l19.03-21.13-20.06-21.332" fill="#e9611f"/><path d="m478.14 63.1l.546.946 1.726-1.726-.936-.566c-.517-.293-1.063-.614-1.619-.956-.566-.341-1.112-.673-1.648-.995l-.049.049c.341.536.673 1.083 1.024 1.639.342.546.654 1.083.956 1.609" fill="#e9611f"/><path d="m450.15 86.47c-.419.098-.858.38-1.336.868l-.946.946 2.273 2.273.946-.946c.478-.478.741-.946.79-1.405.049-.458-.117-.878-.517-1.278-.39-.39-.8-.546-1.21-.458" fill="#e9611f"/></g><g><path d="m350.27 189.88l.546.946 1.726-1.726-.936-.566c-.517-.293-1.053-.615-1.619-.956-.566-.332-1.112-.663-1.639-.985l-.058.049c.341.527.673 1.073 1.024 1.629.341.556.663 1.092.956 1.609" fill="#e5561f"/><path d="m372.05 168.11l.546.946 1.726-1.726-.936-.556c-.517-.302-1.063-.615-1.619-.956-.566-.341-1.112-.673-1.648-.995l-.049.049c.332.536.673 1.073 1.014 1.629.341.555.663 1.092.966 1.609" fill="#e5561f"/><path d="m421.67 146.97l-1.419-28.628-29.22-.905-6.767 6.78h.06l-55.14 54.943c-14.255 14.219-33.541 22.17-53.669 22.17h-68.11l15.545 17.322 1.221 1.358c1.29 1.357 1.229 3.49-.129 4.783l-18.374 19.649h69.841c15.674 0 30.961-3.038 45.41-9.05 14.453-6.01 27.479-14.608 38.571-25.725l55.15-54.944 7.154-7.108c-.058-.259-.058-.448-.127-.646" fill="#e5561f"/><path d="m344.36 193.01c-.419-.419-.839-.595-1.278-.517-.429.078-.888.361-1.366.849l-1.024 1.014 2.448 2.448 1.024-1.014c.497-.507.761-.985.79-1.453.03-.468-.165-.907-.594-1.327" fill="#e5561f"/></g><g><path d="m50.09 59.32c-.449-.322-.878-.4-1.268-.244-.39.166-.78.517-1.17 1.073l-.771 1.092 2.624 1.863.771-1.092c.39-.556.576-1.063.546-1.512-.029-.458-.273-.849-.732-1.18" fill="#da3621"/><path d="m63.723 47.889l.488.975 1.834-1.609-.897-.615c-.497-.332-1.014-.683-1.551-1.063-.536-.371-1.063-.741-1.58-1.092l-.049.039c.302.556.605 1.122.907 1.697.302.576.585 1.132.848 1.668" fill="#da3621"/><path d="m174.72 28.11c-1.29-1.353-1.229-3.489.129-4.781l18.19-19.324h-69.14c-60.37 0-110.48 44.98-118.74 103.29l22.251 20.935 21.02-18.997c6.965-35.3 38.25-62.19 75.46-62.19h67.847l-15.803-17.575-1.221-1.361" fill="#da3621"/></g><g><path d="m193.1 201.33h-69.2c-41.794 0-76.04-33.869-76.944-75.56l-15.738 14.284-1.483 1.292c-1.419 1.361-3.676 1.292-5.03-.129l-20.703-19.514c0 .836 0 1.68 0 2.455 0 66.31 53.79 120.22 119.9 120.22h67.4c.129-.258.318-.582.516-.84l20.06-21.329-18.769-20.877" fill="#e04820"/><path d="m57.05 191.63c-.068-.419-.341-.868-.81-1.366l-.907-.975-2.36 2.185.917.975c.458.497.917.78 1.366.849.449.068.888-.088 1.297-.468.409-.381.575-.78.497-1.2" fill="#e04820"/></g><g><path d="m752.61 33.33c-.702-.361-1.405-.371-2.097-.02-.702.351-1.327 1.034-1.873 2.048-.536 1.024-.771 1.941-.683 2.741.078.8.468 1.385 1.161 1.775.702.361 1.405.351 2.117-.029.712-.371 1.346-1.073 1.902-2.087.527-1.024.751-1.921.654-2.692-.099-.771-.489-1.356-1.181-1.736" fill="#ed6e1f"/><path d="m705.59 4h-69.08l18.19 19.324c1.35 1.292 1.419 3.429.129 4.781l-1.23 1.361-15.803 17.575h67.786c37.21 0 68.49 26.828 75.52 62.19l21.03 18.997 22.243-20.935c-8.253-58.31-58.36-103.29-118.8-103.29" fill="#ed6e1f"/><path d="m793.85 79.892c.419.185.878.146 1.375-.107.488-.263.751-.605.79-1.024.039-.429-.098-.936-.419-1.531l-.624-1.18-2.848 1.492.624 1.18c.312.604.683.994 1.102 1.17" fill="#ed6e1f"/></g><g><path d="m785.16 178.93c-1.034-.497-1.941-.693-2.712-.566-.771.127-1.336.536-1.687 1.239-.341.722-.322 1.414.049 2.097.38.693 1.083 1.288 2.107 1.805 1.054.497 1.97.693 2.77.585.79-.107 1.375-.517 1.726-1.219.341-.722.312-1.424-.088-2.117-.399-.703-1.121-1.308-2.165-1.824" fill="#f0791f"/><path d="m786.52 168.64c-.536-.127-.966-.049-1.268.244-.312.283-.546.761-.702 1.424l-.312 1.297 3.121.771.312-1.297c.166-.663.146-1.2-.039-1.609-.195-.42-.566-.693-1.112-.83" fill="#f0791f"/><path d="m804.85 141.22c-1.358 1.422-3.611 1.49-5.04.129l-1.479-1.292-15.803-14.284c-.834 41.692-35.15 75.56-76.943 75.56h-69.14l-18.769 20.877 20.06 21.329c.189.258.387.582.516.84h67.33c66.17 0 119.96-53.906 119.96-120.22 0-.775 0-1.62 0-2.395l-20.697 19.454" fill="#f0791f"/><path d="m756.53 204.66c-.683-.371-1.385-.39-2.097-.049-.702.361-1.112.927-1.239 1.697-.117.771.078 1.678.576 2.712.527 1.034 1.131 1.756 1.834 2.146.693.4 1.405.429 2.117.088.702-.361 1.112-.936 1.219-1.736.107-.79-.098-1.707-.605-2.76-.518-1.025-1.113-1.727-1.805-2.098" fill="#f0791f"/></g><g><path d="m176.78 122.25c0 1.767-.294 3.39-.884 4.868-.589 1.478-1.417 2.75-2.483 3.818-1.067 1.067-2.35 1.894-3.851 2.483-1.5.59-3.162.884-4.984.884h-9.203v-24.11h9.203c1.822 0 3.484.297 4.984.891 1.501.595 2.784 1.423 3.851 2.484s1.894 2.331 2.483 3.809c.589 1.479.884 3.102.884 4.869m-4.585 0c0-1.323-.178-2.509-.533-3.559-.356-1.05-.862-1.94-1.517-2.668-.655-.727-1.454-1.286-2.392-1.675-.939-.389-1.998-.583-3.175-.583h-4.685v16.971h4.685c1.177 0 2.236-.195 3.175-.583.939-.389 1.737-.948 2.392-1.676.655-.727 1.161-1.617 1.517-2.667.356-1.051.533-2.237.533-3.56" fill="#251b3f"/><path d="m195.15 110.19v3.567h-10.687v6.685h8.418v3.451h-8.418v6.818h10.687v3.585h-15.204v-24.11h15.204" fill="#251b3f"/><path d="m196.7 110.19h3.618c.389 0 .706.094.95.283s.428.433.55.734l5.669 14.704c.189.478.369 1 .542 1.576.172.573.336 1.175.492 1.809.256-1.278.573-2.406.95-3.384l5.652-14.704c.099-.256.277-.489.533-.701.255-.21.572-.316.95-.316h3.617l-9.736 24.11h-4.051l-9.736-24.11" fill="#251b3f"/></g><g><path d="m632.32 122.25c0 1.767-.295 3.404-.884 4.909-.589 1.506-1.417 2.809-2.484 3.91-1.067 1.1-2.35 1.959-3.851 2.576-1.501.616-3.162.925-4.985.925-1.823 0-3.487-.309-4.993-.925-1.506-.617-2.795-1.476-3.868-2.576-1.073-1.1-1.903-2.403-2.492-3.91-.59-1.506-.884-3.142-.884-4.909 0-1.768.294-3.404.884-4.91.589-1.506 1.419-2.809 2.492-3.91 1.072-1.1 2.361-1.958 3.868-2.575 1.506-.617 3.17-.925 4.993-.925 1.822 0 3.484.311 4.985.933 1.5.623 2.784 1.481 3.851 2.576 1.067 1.094 1.895 2.395 2.484 3.901.589 1.507.884 3.143.884 4.91m-4.602 0c0-1.323-.175-2.509-.525-3.559-.35-1.05-.853-1.942-1.508-2.676-.656-.734-1.454-1.295-2.393-1.684-.939-.389-1.997-.583-3.175-.583-1.179 0-2.24.195-3.184.583-.945.389-1.748.95-2.409 1.684-.661.734-1.17 1.626-1.526 2.676-.355 1.05-.533 2.237-.533 3.559s.178 2.509.533 3.559c.356 1.05.865 1.94 1.526 2.667.661.728 1.465 1.287 2.409 1.676.944.389 2.01.583 3.184.583 1.178 0 2.237-.195 3.175-.583.939-.389 1.737-.948 2.393-1.676.656-.727 1.158-1.617 1.508-2.667.351-1.05.525-2.236.525-3.559" fill="#251b3f"/><path d="m640.05 125.81v8.486h-4.484v-24.11h7.852c1.611 0 3.01.189 4.184.566s2.151.906 2.917 1.584c.767.678 1.334 1.489 1.7 2.434.367.945.551 1.978.551 3.101 0 1.167-.195 2.237-.583 3.21-.389.972-.973 1.809-1.75 2.509-.778.7-1.75 1.245-2.917 1.634-1.167.389-2.534.583-4.101.583h-3.369zm0-3.501h3.368c.822 0 1.539-.103 2.15-.309.611-.206 1.117-.5 1.517-.884.4-.383.7-.85.9-1.4.2-.55.3-1.164.3-1.842 0-.645-.1-1.228-.3-1.75-.2-.522-.501-.967-.9-1.334-.4-.367-.906-.647-1.517-.842-.611-.194-1.328-.291-2.15-.291h-3.368v8.652" fill="#251b3f"/><path d="m668.61 114.58c-.122.245-.264.417-.425.517s-.352.15-.575.15c-.222 0-.472-.086-.75-.258-.278-.172-.605-.364-.983-.575s-.82-.402-1.325-.575c-.506-.172-1.103-.258-1.792-.258-.623 0-1.164.075-1.626.226-.461.149-.85.358-1.167.625s-.553.586-.708.959c-.156.373-.233.781-.233 1.225 0 .567.158 1.039.475 1.417.317.378.736.7 1.258.967.522.267 1.117.506 1.784.717.667.211 1.347.436 2.042.675.695.239 1.375.516 2.043.833.666.317 1.261.717 1.784 1.201.522.483.941 1.075 1.258 1.775.317.701.475 1.551.475 2.551 0 1.089-.186 2.108-.558 3.059-.373.95-.917 1.779-1.634 2.484-.717.706-1.592 1.262-2.626 1.668-1.033.405-2.217.608-3.55.608-.767 0-1.523-.075-2.267-.225-.745-.15-1.459-.364-2.143-.642-.683-.278-1.323-.612-1.917-1-.594-.389-1.125-.823-1.592-1.301l1.301-2.15c.122-.156.269-.286.442-.392.172-.105.364-.158.575-.158.278 0 .578.115.9.342.322.228.703.481 1.142.758.439.278.956.531 1.551.758.594.228 1.308.342 2.142.342 1.278 0 2.267-.303 2.968-.908.7-.605 1.05-1.476 1.05-2.609 0-.634-.158-1.151-.475-1.551-.317-.4-.736-.736-1.259-1.01-.522-.272-1.117-.503-1.784-.692-.666-.189-1.345-.394-2.034-.616-.689-.223-1.367-.49-2.034-.801-.667-.311-1.262-.717-1.784-1.216-.522-.501-.942-1.126-1.259-1.876-.316-.75-.474-1.675-.474-2.776 0-.878.175-1.734.525-2.568.35-.833.861-1.572 1.534-2.217s1.497-1.161 2.476-1.551c.978-.389 2.095-.583 3.351-.583 1.423 0 2.734.222 3.934.666 1.201.445 2.223 1.067 3.068 1.867l-1.104 2.117" fill="#251b3f"/></g><g><path d="m370.92 114.84c-1.04 0-2.062-.405-2.826-1.168l-41.726-41.62c-13.641-13.544-31.7-21.01-50.844-21.01h-69.45c-1.134 0-2.214-.481-2.973-1.323l-19.03-21.13c-1.392-1.547-1.366-3.901.059-5.417l19.88-21.14c.697-1.231 2.01-2.028 3.48-2.028h68.04c16.337 0 32.13 3.127 46.943 9.293 15.12 6.279 28.525 15.224 39.855 26.583l41.02 40.845c1.121 1.116 1.479 2.788.913 4.266s-1.949 2.482-3.529 2.564l-24.37 1.233c-.329.018-.665.386-.665.785 0 .041-.001.082-.002.122l-.774 25.27c-.049 1.595-1.04 3.01-2.521 3.596-.478.189-.979.282-1.475.282m-163.07-71.795h67.67c21.27 0 41.33 8.288 56.49 23.336l35.19 35.1.489-15.983c.037-4.649 3.673-8.467 8.308-8.706l1.86-.07 13.447-.695-34.63-34.48c-.003-.004-.007-.007-.01-.011-10.587-10.616-23.13-18.979-37.27-24.855-13.835-5.762-28.594-8.682-43.871-8.682h-66.15l-16.896 17.967 15.373 17.08m-4.224-40.09c-.001.002-.002.005-.002.008 0-.003.001-.006.002-.008" fill="#251b3f"/><path d="m27.412 132.22c-.986 0-1.972-.363-2.741-1.087l-22.251-20.935c-.946-.891-1.401-2.187-1.22-3.474 4.152-29.326 18.766-56.3 41.15-75.954 22.599-19.844 51.56-30.773 81.55-30.773h69.14c1.596 0 3.039.948 3.672 2.413s.335 3.166-.759 4.328l-17.928 19.05 16.699 18.574c1.056 1.175 1.322 2.86.679 4.303-.643 1.442-2.074 2.372-3.653 2.372h-67.847c-34.709 0-64.795 24.796-71.54 58.959-.167.846-.604 1.615-1.243 2.193l-21.03 18.996c-.763.689-1.723 1.033-2.682 1.033m-17.983-26.411l18.04 16.971 17.317-15.646c7.984-37.22 41.04-64.09 79.11-64.09h58.871l-10.992-12.229c-1.327-1.418-2.031-3.265-1.983-5.208.047-1.932.829-3.733 2.206-5.088l11.778-12.517h-59.88c-28.05 0-55.13 10.223-76.27 28.784-20.427 17.938-33.938 42.38-38.2 69.03" fill="#251b3f"/><path d="m191.3 248.38h-67.4c-68.32 0-123.9-55.725-123.9-124.22v-2.455c0-1.597.949-3.04 2.415-3.673 1.465-.633 3.167-.332 4.328.762l20.553 19.372 1.294-1.127 15.677-14.229c1.159-1.054 2.827-1.335 4.269-.713 1.439.619 2.385 2.02 2.419 3.588.855 39.507 33.578 71.65 72.944 71.65h69.2c1.135 0 2.216.481 2.975 1.326l18.77 20.877c1.391 1.546 1.364 3.899-.061 5.414l-19.853 21.11c-.02.032-.039.069-.057.103-.676 1.359-2.063 2.217-3.58 2.217m-183.09-117.21c3.629 60.831 54.13 109.21 115.69 109.21h65.4l17.15-18.23-15.12-16.816h-67.42c-40.862 0-75.27-31.19-80.32-71.09l-11.154 10.07c-1.442 1.344-3.309 2.054-5.297 2.01-1.986-.044-3.838-.845-5.229-2.258l-13.687-12.901" fill="#251b3f"/><path d="m275.52 248.44h-69.841c-1.594 0-3.035-.946-3.669-2.407-.635-1.462-.341-3.161.747-4.325l18.13-19.384-16.446-18.323c-1.055-1.175-1.319-2.86-.677-4.302.644-1.441 2.074-2.37 3.653-2.37h68.1c19.21 0 37.27-7.459 50.844-21l54.701-54.51c.111-.15.235-.294.371-.43l6.767-6.78c.78-.781 1.836-1.184 2.955-1.173l29.22.904c2.083.064 3.768 1.718 3.871 3.8l1.4 28.26c.025.132.042.242.055.325.311 1.348-.102 2.753-1.083 3.729l-7.153 7.107-55.14 54.939c-11.318 11.345-24.731 20.292-39.857 26.584-14.917 6.209-30.711 9.356-46.942 9.356m-60.62-8h60.62c15.17 0 29.93-2.941 43.869-8.742 14.15-5.886 26.693-14.249 37.27-24.856l60.957-60.716-1.185-23.901-23.796-.736-5.104 5.115c-.115.156-.244.306-.386.446l-55.14 54.942c-15.09 15.05-35.15 23.337-56.49 23.337h-59.14l10.747 11.973c2.722 2.916 2.62 7.489-.218 10.291l-12.01 12.847" fill="#251b3f"/><path d="m431.87 141.54c-.481 0-.968-.087-1.435-.267-1.474-.566-2.477-1.947-2.559-3.523l-1.341-25.894-25.3-.765c-1.598-.048-3.01-1.043-3.601-2.531-.586-1.487-.23-3.181.905-4.307l13.55-13.439 55.13-54.934c11.385-11.406 24.8-20.354 39.864-26.588 14.808-6.162 30.602-9.288 46.938-9.288h68.04c1.47 0 2.785.8 3.481 2.028l19.878 21.14c1.425 1.516 1.45 3.87.059 5.417l-19.03 21.13c-.759.842-1.839 1.323-2.973 1.323h-69.46c-19.14 0-37.19 7.463-50.842 21.01l-54.671 54.47c-.12.164-.253.32-.4.468l-13.413 13.38c-.764.761-1.786 1.167-2.827 1.167m-4.769-37.671c4.059.036 7.281 3.173 7.41 7.171l.068 1.784.816 15.551 6.593-6.576c.12-.166.255-.324.403-.473l55.15-54.939c15.16-15.05 35.22-23.341 56.48-23.341h67.68l15.373-17.07-16.894-17.967h-66.16c-15.275 0-30.03 2.92-43.869 8.678-14.09 5.832-26.633 14.194-37.28 24.858l-55.15 54.948-6.945 6.889 16.314.492m-.585 7.453c0 .002 0 .004 0 .006v-.006" fill="#251b3f"/><path d="m623.93 248.38h-69.91c-16.332 0-32.13-3.126-46.943-9.291-15.06-6.24-28.477-15.188-39.863-26.592l-32.62-32.5c-.918-.726-1.506-1.847-1.506-3.112 0-.042.001-.133.002-.175l.903-28.631c.064-2.058 1.681-3.729 3.734-3.865l29.345-1.938c1.136-.075 2.271.346 3.087 1.157l33.02 32.896c13.639 13.543 31.694 21 50.837 21h68.1c1.578 0 3.01.928 3.652 2.369s.379 3.127-.675 4.302l-16.443 18.324 18.18 19.31c1.094 1.162 1.393 2.863.76 4.328s-2.077 2.414-3.672 2.414m-182.79-73.15l31.727 31.609c10.647 10.663 23.19 19.03 37.28 24.863 13.843 5.76 28.603 8.68 43.875 8.68h60.65l-12.03-12.78c-2.852-2.821-2.938-7.436-.173-10.344l1.162-1.286 9.541-10.637h-59.14c-21.269 0-41.33-8.286-56.48-23.331l-31.747-31.625-23.92 1.58-.733 23.271m167.2 47.46l-.013.015c.004-.006.008-.01.013-.015" fill="#251b3f"/><path d="m705.59 248.38h-67.33c-1.518 0-2.904-.858-3.58-2.217-.013-.023-.036-.065-.065-.112l-19.844-21.1c-1.425-1.515-1.451-3.868-.061-5.414l18.77-20.877c.759-.845 1.84-1.326 2.975-1.326h69.14c39.431 0 72.15-32.14 72.943-71.64.031-1.566.974-2.97 2.412-3.592 1.44-.621 3.107-.346 4.27.704l17.04 15.366 20.553-19.318c1.161-1.094 2.863-1.389 4.327-.758 1.464.634 2.412 2.076 2.412 3.672v2.395c-.001 68.49-55.608 124.22-123.96 124.22m-65.33-8h65.33c61.58 0 112.1-48.35 115.75-109.17l-13.681 12.859c-2.867 2.904-7.541 3.01-10.527.239l-1.425-1.245-9.778-8.837c-4.991 39.901-39.41 71.1-80.34 71.1h-67.35l-15.12 16.816 17.14 18.231" fill="#251b3f"/><path d="m802.14 132.22c-.959 0-1.919-.343-2.682-1.031l-21.03-18.996c-.638-.577-1.073-1.345-1.241-2.188-6.797-34.17-36.909-58.965-71.6-58.965h-67.787c-1.579 0-3.01-.93-3.653-2.372-.644-1.442-.377-3.128.679-4.303l16.708-18.576-17.935-19.05c-1.094-1.162-1.393-2.863-.76-4.328.633-1.466 2.076-2.414 3.672-2.414h69.08c30.02 0 58.999 10.929 81.61 30.772 22.386 19.65 37 46.625 41.15 75.955.182 1.287-.272 2.582-1.22 3.474l-22.243 20.935c-.768.723-1.754 1.087-2.74 1.087m-17.379-25.09l17.323 15.648 18.03-16.971c-4.26-26.647-17.772-51.09-38.2-69.03-21.15-18.562-48.25-28.785-76.33-28.785h-59.816l11.788 12.521c2.84 2.809 2.938 7.389.213 10.298l-10.995 12.223h58.811c38.05 0 71.13 26.874 79.17 64.09" fill="#251b3f"/></g><g><path d="m342.52 204.52l-8.273-8.273 3.03-3.03c.449-.449.924-.834 1.42-1.152.498-.316 1.01-.521 1.527-.61.521-.089 1.051-.048 1.584.12.535.17 1.062.516 1.58 1.033.508.508.855 1.037 1.037 1.584s.236 1.09.164 1.628c-.07.54-.25 1.066-.535 1.579-.283.514-.641.986-1.074 1.419l-.891.892 2.621 2.621-2.187 2.188m-2.166-6.542l.789-.789c.434-.433.652-.854.658-1.266.002-.412-.182-.804-.555-1.177-.375-.374-.75-.522-1.133-.446s-.785.327-1.211.752l-.736.738 2.188 2.188" fill="#251b3f"/><path d="m348.88 198.17l-5.754-10.793 2.648-2.646 10.793 5.752-2.316 2.317-2.164-1.35-2.316 2.315 1.35 2.165-2.241 2.24m-.84-7.203l.432.713 1.527-1.527-.713-.434c-.498-.297-1.033-.627-1.604-.992-.568-.365-1.109-.703-1.629-1.019l-.051.05c.332.52.68 1.059 1.045 1.618.366.562.696 1.091.993 1.591" fill="#251b3f"/><path d="m360.97 186.38c-.527.525-1.117.941-1.77 1.247-.654.306-1.336.463-2.049.472-.713.008-1.439-.146-2.182-.465s-1.467-.829-2.172-1.534c-.695-.695-1.203-1.423-1.52-2.183-.32-.76-.479-1.509-.479-2.246 0-.739.143-1.444.428-2.119.283-.675.688-1.275 1.215-1.802.551-.551 1.152-.935 1.801-1.151s1.271-.324 1.865-.324l.254 2.545c-.383.025-.738.09-1.068.191-.332.102-.637.293-.918.572-.246.246-.422.532-.527.859-.107.326-.141.674-.102 1.045.037.367.156.75.355 1.144.199.396.486.779.859 1.152.781.781 1.543 1.216 2.285 1.305s1.379-.134 1.914-.669c.322-.322.539-.678.65-1.068.109-.391.158-.771.139-1.145l2.521.229c.051.764-.053 1.479-.311 2.145-.257.665-.653 1.265-1.188 1.8" fill="#251b3f"/><path d="m364.65 182.4l-8.273-8.273 2.189-2.188 3.08 3.08.051-.051-.992-5.168 2.393-2.393.891 5.829 7.865 1.96-2.393 2.393-5.01-1.348.33 1.908 2.062 2.062-2.189 2.189" fill="#251b3f"/><path d="m372.27 174.78l-5.754-10.793 2.646-2.647 10.795 5.753-2.318 2.316-2.164-1.35-2.314 2.316 1.348 2.164-2.239 2.241m-.842-7.204l.434.714 1.527-1.528-.713-.433c-.5-.297-1.035-.627-1.604-.992s-1.111-.704-1.631-1.02l-.051.051c.332.52.68 1.058 1.045 1.617.366.562.696 1.091.993 1.591" fill="#251b3f"/><path d="m384.59 162.76c-.578.578-1.207 1.033-1.891 1.369-.684.335-1.391.516-2.121.541-.729.025-1.467-.119-2.213-.433s-1.473-.823-2.178-1.528c-.695-.695-1.201-1.422-1.52-2.182s-.473-1.514-.465-2.26.166-1.467.471-2.163.734-1.319 1.285-1.872c.611-.61 1.248-1.03 1.91-1.26.662-.229 1.289-.343 1.885-.344l.254 2.547c-.383.024-.744.093-1.082.203-.34.11-.676.33-1.01.661-.279.28-.484.595-.611.942-.129.348-.178.713-.152 1.095s.137.77.336 1.163c.201.396.486.779.859 1.152.781.781 1.553 1.205 2.316 1.273s1.52-.271 2.266-1.019c.119-.118.223-.247.312-.388.088-.141.146-.273.172-.401l-1.145-1.146-1.223 1.222-1.781-1.781 3.156-3.156 3.945 3.945c-.018.577-.172 1.212-.465 1.902-.291.694-.73 1.332-1.314 1.918" fill="#251b3f"/><path d="m388.88 158.17l-8.273-8.273 5.346-5.347 1.834 1.834-3.158 3.156 1.299 1.299 2.697-2.699 1.836 1.834-2.699 2.699 1.475 1.475 3.285-3.283 1.832 1.832-5.474 5.473" fill="#251b3f"/></g><g><path d="m323.09 42.925l8.273-8.273 3.03 3.03c.449.449.833.924 1.151 1.42.317.498.521 1.01.611 1.527.088.521.049 1.051-.121 1.584-.17.535-.514 1.062-1.031 1.58-.51.508-1.037.855-1.584 1.037s-1.092.236-1.629.164c-.54-.07-1.066-.25-1.579-.535-.513-.283-.986-.641-1.419-1.074l-.891-.891-2.623 2.621-2.187-2.187m6.542-2.166l.789.789c.434.434.855.652 1.267.658.411.002.804-.182 1.177-.555.374-.375.522-.75.445-1.133-.076-.383-.326-.785-.751-1.211l-.737-.736-2.19 2.188" fill="#251b3f"/><path d="m330.69 50.52l8.273-8.273 2.189 2.189-6.441 6.439 3.132 3.133-1.833 1.832-5.32-5.32" fill="#251b3f"/><path d="m336.74 56.57l10.793-5.754 2.648 2.648-5.754 10.793-2.316-2.316 1.35-2.164-2.316-2.316-2.164 1.35-2.241-2.241m7.205-.84l-.714.434 1.527 1.527.433-.715c.297-.5.628-1.035.993-1.602.364-.57.704-1.111 1.019-1.631l-.051-.051c-.519.33-1.057.68-1.617 1.045s-1.09.697-1.59.993" fill="#251b3f"/><path d="m345.37 65.2l8.273-8.273 2.239 2.24-1.858 5.523-1.069 2.648.052.051c.195-.246.407-.52.636-.816.229-.295.469-.594.72-.896.25-.301.502-.6.757-.896s.509-.574.765-.828l2.393-2.393 2.087 2.088-8.273 8.273-2.24-2.242 1.872-5.535 1.055-2.635-.051-.051c-.424.525-.882 1.104-1.373 1.73-.492.629-.994 1.197-1.503 1.705l-2.393 2.395-2.089-2.088" fill="#251b3f"/></g><g><path d="m451.02 96.02l-8.273-8.273 3.129-3.131c.441-.441.908-.82 1.395-1.139.488-.318.984-.526 1.49-.623.504-.099 1.018-.065 1.539.1.523.167 1.043.509 1.561 1.025.594.594.965 1.207 1.113 1.84s.129 1.263-.059 1.89l5 1.413-2.445 2.443-4.199-1.349-.84.841 2.773 2.773-2.188 2.19m-2.318-6.695l.789-.789c.883-.882.959-1.688.229-2.418-.355-.356-.713-.489-1.074-.401-.361.089-.758.351-1.189.784l-.789.789 2.034 2.035" fill="#251b3f"/><path d="m459.01 88.03l-8.273-8.273 5.348-5.346 1.832 1.832-3.156 3.158 1.297 1.297 2.699-2.698 1.834 1.834-2.699 2.698 1.477 1.477 3.283-3.285 1.834 1.834-5.476 5.472" fill="#251b3f"/><path d="m466.09 80.951l-8.273-8.273 2.188-2.189 6.441 6.44 3.131-3.132 1.834 1.834-5.321 5.32" fill="#251b3f"/><path d="m472.66 74.38l-8.273-8.273 5.348-5.346 1.832 1.833-3.156 3.157 1.297 1.298 2.699-2.698 1.834 1.834-2.699 2.698 1.475 1.476 3.285-3.284 1.832 1.833-5.474 5.472" fill="#251b3f"/><path d="m478.96 68.08l-5.754-10.794 2.648-2.646 10.793 5.752-2.316 2.317-2.164-1.35-2.316 2.315 1.35 2.165-2.241 2.241m-.84-7.204l.432.713 1.527-1.527-.713-.434c-.5-.297-1.033-.627-1.604-.992-.568-.365-1.109-.703-1.629-1.019l-.051.051c.332.519.68 1.058 1.045 1.617.366.562.696 1.091.993 1.591" fill="#251b3f"/><path d="m490.49 56.859c-.525.527-1.16.973-1.908 1.337-.746.366-1.549.568-2.406.61l-.254-2.748c.535-.059 1.049-.186 1.541-.382.492-.194.889-.446 1.195-.752.33-.331.52-.62.566-.871.047-.25-.023-.47-.209-.655-.102-.102-.213-.161-.332-.179-.119-.017-.256-.007-.412.032-.158.038-.332.098-.523.178-.189.082-.408.177-.654.287l-1.465.598c-.305.137-.629.236-.975.299-.344.064-.686.078-1.029.039-.344-.038-.684-.137-1.018-.293-.336-.157-.652-.384-.949-.682-.355-.355-.613-.766-.77-1.229-.158-.462-.217-.944-.178-1.45.037-.505.178-1.014.42-1.528.242-.512.586-.994 1.037-1.443.475-.476 1.045-.868 1.711-1.178s1.381-.465 2.145-.465l.279 2.469c-.475.086-.891.207-1.254.363-.359.158-.691.389-.998.693-.271.272-.436.531-.496.777s.004.463.189.648c.195.195.455.238.777.128.324-.11.748-.284 1.273-.522l1.398-.611c.723-.312 1.406-.428 2.051-.344.645.086 1.256.417 1.832.993.348.349.611.756.789 1.223.18.468.25.958.217 1.476s-.178 1.049-.432 1.592c-.253.543-.64 1.074-1.158 1.59" fill="#251b3f"/><path d="m494.9 52.14l-8.273-8.273 5.346-5.347 1.834 1.834-3.158 3.156 1.299 1.299 2.697-2.699 1.836 1.834-2.699 2.699 1.475 1.475 3.285-3.283 1.832 1.832-5.474 5.473" fill="#251b3f"/></g><g><path d="m48.26 71.943c-.407.623-.899 1.151-1.476 1.584-.577.433-1.214.727-1.909.881-.696.154-1.44.152-2.231-.007-.792-.159-1.605-.512-2.438-1.057-.824-.538-1.47-1.146-1.937-1.824-.467-.679-.776-1.379-.928-2.102s-.157-1.442-.017-2.161c.14-.719.413-1.39.82-2.01.427-.653.936-1.152 1.526-1.497s1.177-.578 1.759-.7l.771 2.439c-.368.104-.704.238-1.01.406-.304.167-.563.417-.78.748-.19.292-.304.608-.341.949-.036.342.002.689.114 1.043.113.354.308.703.584 1.048.276.346.635.662 1.077.951.924.604 1.759.874 2.504.809.744-.064 1.324-.414 1.737-1.047.25-.382.389-.774.416-1.18.028-.404-.004-.787-.098-1.149l2.514-.292c.206.736.251 1.458.135 2.162-.117.708-.381 1.376-.795 2.01" fill="#251b3f"/><path d="m50.767 67.875l-9.01-7.467 2.826-3.408c.397-.48.825-.902 1.281-1.265s.931-.615 1.425-.76c.493-.144 1.01-.158 1.543-.042.534.116 1.084.408 1.647.875.646.536 1.073 1.112 1.28 1.728s.246 1.245.119 1.888l5.111.94-2.205 2.661-4.308-.952-.758.914 3.02 2.504-1.974 2.384m-2.93-6.45l.712-.858c.796-.961.798-1.771.003-2.43-.388-.321-.758-.421-1.108-.299s-.722.419-1.112.891l-.712.858 2.217 1.838" fill="#251b3f"/><path d="m57.676 59.763l-8.133-8.412 5.435-5.255 1.802 1.863-3.209 3.104 1.276 1.319 2.743-2.652 1.802 1.863-2.743 2.653 1.451 1.501 3.339-3.229 1.802 1.863-5.565 5.382" fill="#251b3f"/><path d="m63.59 53.976l-4.34-11.436 2.961-2.29 9.979 7.07-2.592 2-1.975-1.612-2.592 2.01 1.064 2.317-2.505 1.939m.079-7.253l.339.762 1.709-1.321-.652-.52c-.459-.357-.947-.754-1.466-1.188-.518-.434-1.013-.84-1.486-1.217l-.058.044c.263.556.54 1.135.831 1.736s.551 1.169.783 1.704" fill="#251b3f"/><path d="m73.973 46.32l-4.827-7.724-2.625 1.642-1.374-2.198 7.876-4.923 1.373 2.198-2.625 1.641 4.828 7.724-2.626 1.64" fill="#251b3f"/><path d="m80.14 42.582l-5.137-10.512 6.792-3.319 1.138 2.329-4.01 1.96.806 1.649 3.429-1.676 1.138 2.329-3.429 1.676.917 1.876 4.173-2.039 1.138 2.328-6.955 3.399" fill="#251b3f"/></g><g><path d="m35.653 178.45l8.08-9.144 1.74 2.776-3.682 3.752c-.439.474-.884.923-1.333 1.347-.45.423-.899.875-1.349 1.355l.038.061c.628-.195 1.231-.4 1.812-.615.58-.216 1.176-.423 1.788-.622l4.962-1.709 1.683 2.684-11.748 3.287-1.988-3.172" fill="#251b3f"/><path d="m40.695 186.12l9.187-7.246 4.682 5.936-2.035 1.605-2.765-3.505-1.441 1.137 2.363 2.996-2.035 1.605-2.363-2.996-1.64 1.293 2.876 3.646-2.035 1.605-4.794-6.076" fill="#251b3f"/><path d="m47.4 194.38l8.332-8.214 3.108 3.153c.438.444.814.912 1.129 1.402s.52.987.613 1.493.057 1.019-.113 1.539c-.169.521-.515 1.038-1.035 1.552-.599.59-1.214.957-1.848 1.101-.633.145-1.263.121-1.89-.07l-1.448 4.992-2.426-2.462 1.379-4.19-.834-.846-2.795 2.755-2.172-2.205m6.71-2.269l.783.795c.876.889 1.682.971 2.417.246.358-.354.495-.711.408-1.072-.086-.361-.345-.76-.774-1.195l-.783-.795-2.051 2.02" fill="#251b3f"/><path d="m55.901 202.64l7.577-8.915 2.358 2-7.576 8.915-2.359-2" fill="#251b3f"/><path d="m60.6 206.58l6.847-9.487 6.189 4.466-1.518 2.102-3.678-2.654-1.307 1.81 3.153 2.275-1.518 2.103-3.152-2.275-2.507 3.474-2.509-1.814" fill="#251b3f"/><path d="m71.26 213.76l1.998-3.502.735-8.409 2.876 1.642-.462 2.554c-.096.457-.185.904-.268 1.34-.083.437-.17.892-.26 1.364l.062.036c.361-.319.711-.623 1.05-.914.338-.29.686-.59 1.041-.898l1.963-1.698 2.814 1.605-6.864 4.912-1.997 3.503-2.688-1.535" fill="#251b3f"/></g><g><path d="m743.67 220.83l-4.926-10.612 3-1.395 3.616 3.601c.234.248.468.511.701.785.234.275.473.548.718.818l.065-.03c-.049-.361-.103-.72-.162-1.076-.06-.355-.108-.703-.147-1.043l-.48-5.06 3-1.395 4.926 10.612-2.547 1.183-1.455-3.135c-.126-.272-.252-.578-.376-.917-.124-.34-.25-.688-.376-1.046-.127-.358-.244-.711-.352-1.058-.108-.347-.207-.658-.295-.935l-.065.03.3 2.956.323 4.117-1.502.697-2.936-2.904-2.031-2.153-.065.03c.154.246.329.522.524.829.194.306.388.623.58.951.191.327.377.648.556.962.179.314.331.607.458.879l1.454 3.135-2.514 1.169" fill="#251b3f"/><path d="m761.2 211.87c-.687.441-1.384.727-2.094.855-.709.129-1.404.102-2.086-.08-.681-.183-1.339-.522-1.974-1.021-.634-.497-1.211-1.149-1.731-1.957-.52-.807-.871-1.598-1.056-2.371-.184-.773-.215-1.503-.093-2.188.123-.685.393-1.319.81-1.901.417-.583.968-1.095 1.654-1.537.676-.435 1.368-.724 2.076-.865s1.4-.124 2.078.053 1.329.507 1.954.989c.625.483 1.197 1.128 1.717 1.935.521.808.875 1.603 1.066 2.387.19.783.228 1.522.111 2.218-.115.696-.381 1.342-.797 1.938s-.959 1.11-1.635 1.545m-1.442-2.24c.595-.383.894-.943.897-1.681.003-.737-.284-1.555-.862-2.452-.578-.898-1.194-1.482-1.847-1.755-.653-.271-1.277-.216-1.873.168-.596.383-.904.929-.927 1.635-.023.708.255 1.51.833 2.408.578.897 1.203 1.498 1.876 1.8s1.307.261 1.903-.123" fill="#251b3f"/><path d="m767.89 207.03l-7.532-8.954 2.425-2.039 5.344 2.326 2.546 1.293.055-.047c-.229-.215-.48-.45-.757-.704-.276-.253-.554-.518-.832-.793s-.556-.553-.829-.832c-.274-.279-.527-.557-.759-.832l-2.179-2.59 2.26-1.899 7.531 8.953-2.424 2.039-5.355-2.34-2.534-1.278-.056.046c.488.468 1.023.974 1.606 1.519.583.544 1.107 1.092 1.57 1.643l2.179 2.59-2.259 1.899" fill="#251b3f"/><path d="m777.37 198.68l-8.323-8.224 2.176-2.202 8.323 8.224-2.176 2.202" fill="#251b3f"/><path d="m783.05 192.63l-6.977-5.855-1.99 2.371-1.985-1.667 5.972-7.113 1.985 1.666-1.991 2.371 6.977 5.856-1.991 2.371" fill="#251b3f"/><path d="m791.31 182.06c-.449.682-.972 1.225-1.568 1.629s-1.244.661-1.94.771c-.696.108-1.436.063-2.217-.135-.782-.198-1.573-.562-2.376-1.09-.802-.527-1.443-1.108-1.924-1.741-.481-.633-.805-1.287-.971-1.964-.165-.676-.175-1.365-.029-2.066.146-.701.443-1.393.892-2.075.442-.671.959-1.215 1.549-1.631s1.23-.68 1.922-.793c.692-.111 1.421-.073 2.188.115s1.551.547 2.353 1.075c.803.527 1.448 1.111 1.94 1.751.491.64.824 1.301.999 1.983.176.684.194 1.381.055 2.094-.141.713-.432 1.405-.873 2.077m-2.226-1.465c.39-.592.437-1.225.142-1.9s-.889-1.307-1.781-1.895c-.892-.587-1.691-.873-2.398-.857s-1.255.319-1.645.911c-.39.591-.451 1.215-.187 1.87.265.656.844 1.277 1.735 1.865.893.587 1.707.883 2.444.887s1.3-.289 1.69-.881" fill="#251b3f"/><path d="m795.43 174.97l-10.491-5.181 1.961-3.971c.276-.559.595-1.067.955-1.525.359-.458.763-.814 1.21-1.069.446-.254.944-.387 1.491-.397.548-.011 1.149.146 1.806.471.753.371 1.302.833 1.645 1.384.344.552.528 1.154.553 1.809l5.19-.267-1.53 3.099-4.411.07-.525 1.064 3.518 1.738-1.372 2.775m-4.343-5.598l.494-1c.553-1.119.366-1.907-.559-2.364-.452-.224-.835-.234-1.147-.034s-.605.574-.876 1.123l-.494 1 2.582 1.275" fill="#251b3f"/></g><g><path d="m741.02 39.13c-.688-.282-1.3-.665-1.835-1.149-.534-.483-.943-1.053-1.227-1.707-.284-.653-.423-1.385-.417-2.192s.198-1.673.574-2.595c.373-.91.848-1.659 1.425-2.247.577-.587 1.206-1.023 1.887-1.31.681-.285 1.387-.428 2.119-.427.731.001 1.442.143 2.131.424.722.295 1.309.7 1.759 1.215.451.515.791 1.046 1.021 1.594l-2.249 1.22c-.171-.342-.368-.646-.59-.912-.222-.266-.517-.474-.883-.623-.322-.132-.654-.183-.996-.154-.343.028-.677.132-1 .31-.326.179-.632.436-.919.772-.286.336-.529.749-.729 1.237-.418 1.022-.524 1.893-.318 2.611.205.72.657 1.222 1.357 1.508.422.173.834.234 1.236.186.402-.05.773-.154 1.111-.314l.764 2.412c-.685.343-1.384.523-2.099.543-.712.017-1.419-.116-2.12-.402" fill="#251b3f"/><path d="m749.41 43.21c-.715-.395-1.296-.873-1.746-1.437-.449-.563-.756-1.188-.918-1.874-.163-.687-.176-1.427-.038-2.222.137-.795.438-1.612.901-2.452.465-.841.993-1.525 1.587-2.055.594-.528 1.221-.901 1.883-1.119.661-.217 1.348-.28 2.059-.189.71.091 1.423.333 2.137.728.704.389 1.286.861 1.747 1.417.46.556.773 1.175.939 1.855.165.681.184 1.41.055 2.189-.128.779-.425 1.589-.889 2.429-.464.841-.996 1.53-1.595 2.07-.6.539-1.233.923-1.9 1.15-.668.228-1.362.301-2.083.217-.723-.082-1.436-.318-2.139-.707m1.288-2.332c.619.343 1.254.341 1.905-.006.65-.347 1.234-.987 1.75-1.923.517-.935.739-1.754.669-2.458-.071-.704-.416-1.227-1.035-1.569-.62-.342-1.247-.355-1.88-.04-.634.314-1.208.94-1.725 1.875-.516.935-.748 1.77-.694 2.505.053.735.39 1.274 1.01 1.616" fill="#251b3f"/><path d="m755.36 46.4l6.911-9.44 2.556 1.871-.991 5.743-.652 2.779.059.043c.155-.273.323-.574.504-.902s.372-.661.573-.997.405-.67.611-1c.206-.333.416-.645.629-.935l1.999-2.73 2.382 1.743-6.911 9.441-2.557-1.872 1-5.757.641-2.766-.058-.043c-.339.585-.704 1.226-1.094 1.921-.391.696-.799 1.335-1.224 1.915l-1.999 2.731-2.382-1.743" fill="#251b3f"/><path d="m764.48 53.3l7.929-8.604 5.612 5.173-1.757 1.906-3.335-3.074-1.513 1.641 2.858 2.635-1.756 1.906-2.859-2.635-2.903 3.15-2.276-2.098" fill="#251b3f"/><path d="m771.05 59.57l8.577-7.957 2.105 2.27-8.577 7.957-2.105-2.27" fill="#251b3f"/><path d="m777.71 67.71c-.499-.646-.872-1.328-1.118-2.048s-.336-1.443-.269-2.171c.067-.727.304-1.44.71-2.142.405-.701 1-1.356 1.79-1.966.778-.603 1.564-1.013 2.357-1.232.794-.22 1.561-.278 2.3-.176.74.104 1.436.351 2.087.741.651.392 1.216.896 1.693 1.512.529.684.865 1.368 1.01 2.054s.178 1.322.103 1.912l-2.558-.069c.023-.382.001-.749-.064-1.1-.067-.351-.243-.711-.529-1.081-.243-.312-.528-.555-.857-.725-.329-.171-.685-.268-1.066-.29-.382-.023-.781.039-1.198.187-.417.148-.834.384-1.251.707-.873.676-1.393 1.388-1.556 2.137-.164.749.077 1.541.724 2.376.103.133.218.253.346.358.127.106.253.18.376.222l1.281-.991-1.058-1.367 1.993-1.542 2.731 3.53-4.413 3.415c-.57-.09-1.181-.324-1.829-.702s-1.227-.894-1.734-1.549" fill="#251b3f"/><path d="m783.4 76.18c-.84-1.413-1.053-2.706-.64-3.88.412-1.173 1.48-2.271 3.203-3.295l5.2-3.088 1.581 2.661-5.51 3.272c-.897.533-1.458 1.03-1.68 1.49-.223.46-.177.953.136 1.479.312.526.727.808 1.243.843.516.035 1.224-.214 2.121-.747l5.51-3.272 1.525 2.569-5.2 3.088c-1.723 1.023-3.193 1.443-4.412 1.261-1.217-.185-2.244-.978-3.077-2.381" fill="#251b3f"/><path d="m786.84 81.81l10.715-4.7 1.778 4.055c.251.571.436 1.143.555 1.713.119.569.133 1.107.04 1.613s-.311.972-.654 1.398c-.344.426-.852.786-1.521 1.08-.77.337-1.476.46-2.118.369-.643-.092-1.223-.339-1.74-.74l-3.134 4.146-1.389-3.165 2.783-3.423-.478-1.088-3.593 1.576-1.244-2.834m7.079.276l.448 1.022c.502 1.143 1.225 1.507 2.17 1.092.462-.202.716-.488.765-.856.048-.368-.051-.832-.297-1.393l-.448-1.022-2.638 1.157" fill="#251b3f"/><path d="m790.99 91.62l11.171-3.479 2.247 7.218-2.475.771-1.327-4.262-1.753.546 1.135 3.644-2.475.771-1.135-3.644-1.994.621 1.381 4.434-2.475.771-2.3-7.391" fill="#251b3f"/></g></g></switch></svg>